G04 This is an RS-274x file exported by *
G04 gerbv version 2.10.1-dev~93f1b5 *
G04 More information is available about gerbv at *
G04 https://gerbv.github.io/ *
G04 --End of header info--*
%MOIN*%
%FSLAX36Y36*%
%IPPOS*%
G04 --Define apertures--*
%ADD10C,0.0000*%
%ADD11C,0.0000*%
%ADD12C,0.0000*%
G04 --Start main section--*
G54D12*
G36*
G01X0013780Y0395335D02*
G01X0055118Y0395335D01*
G01X0057598Y0395294D01*
G01X0062547Y0394970D01*
G01X0067464Y0394322D01*
G01X0072328Y0393355D01*
G01X0077118Y0392071D01*
G01X0081814Y0390477D01*
G01X0086396Y0388579D01*
G01X0090844Y0386386D01*
G01X0095139Y0383906D01*
G01X0099263Y0381151D01*
G01X0103197Y0378132D01*
G01X0106926Y0374862D01*
G01X0110433Y0371355D01*
G01X0113703Y0367627D01*
G01X0116722Y0363692D01*
G01X0119477Y0359568D01*
G01X0121957Y0355273D01*
G01X0124150Y0350825D01*
G01X0126048Y0346243D01*
G01X0127642Y0341547D01*
G01X0128926Y0336757D01*
G01X0129894Y0331893D01*
G01X0130541Y0326976D01*
G01X0130865Y0322027D01*
G01X0130906Y0319547D01*
G01X0130906Y0319547D01*
G01X0130906Y0002618D01*
G01X0489173Y0002618D01*
G01X0489173Y0319547D01*
G01X0489214Y0322027D01*
G01X0489538Y0326976D01*
G01X0490186Y0331893D01*
G01X0491153Y0336757D01*
G01X0492437Y0341547D01*
G01X0494031Y0346243D01*
G01X0495929Y0350825D01*
G01X0498122Y0355273D01*
G01X0500602Y0359568D01*
G01X0503357Y0363692D01*
G01X0506376Y0367627D01*
G01X0509646Y0371355D01*
G01X0513153Y0374862D01*
G01X0516882Y0378132D01*
G01X0520816Y0381151D01*
G01X0524940Y0383906D01*
G01X0529235Y0386386D01*
G01X0533683Y0388579D01*
G01X0538265Y0390477D01*
G01X0542961Y0392071D01*
G01X0547751Y0393355D01*
G01X0552615Y0394322D01*
G01X0557532Y0394970D01*
G01X0562481Y0395294D01*
G01X0564961Y0395335D01*
G01X0564961Y0395335D01*
G01X0606299Y0395335D01*
G01X0606299Y0604095D01*
G01X0559277Y0604095D01*
G01X0535120Y0597885D01*
G01X0513310Y0591676D01*
G01X0493615Y0585466D01*
G01X0475833Y0579257D01*
G01X0445277Y0566838D01*
G01X0420365Y0554419D01*
G01X0400054Y0542001D01*
G01X0383494Y0529582D01*
G01X0369992Y0517163D01*
G01X0358984Y0504744D01*
G01X0346164Y0486116D01*
G01X0336726Y0467488D01*
G01X0331862Y0455069D01*
G01X0324663Y0430231D01*
G01X0319878Y0405394D01*
G01X0316697Y0380556D01*
G01X0314583Y0355719D01*
G01X0313177Y0330881D01*
G01X0312243Y0306043D01*
G01X0311208Y0256368D01*
G01X0310752Y0206693D01*
G01X0310752Y0189706D01*
G01X0313198Y0189641D01*
G01X0318077Y0189259D01*
G01X0322919Y0188547D01*
G01X0327700Y0187507D01*
G01X0332400Y0186144D01*
G01X0336997Y0184465D01*
G01X0341468Y0182476D01*
G01X0345794Y0180188D01*
G01X0349954Y0177612D01*
G01X0353930Y0174758D01*
G01X0357702Y0171640D01*
G01X0361253Y0168273D01*
G01X0364567Y0164672D01*
G01X0367628Y0160854D01*
G01X0370422Y0156837D01*
G01X0372937Y0152639D01*
G01X0375161Y0148280D01*
G01X0377082Y0143779D01*
G01X0378693Y0139158D01*
G01X0379986Y0134438D01*
G01X0380954Y0129642D01*
G01X0381595Y0124790D01*
G01X0381904Y0119906D01*
G01X0381879Y0115013D01*
G01X0381522Y0110132D01*
G01X0380834Y0105287D01*
G01X0379818Y0100500D01*
G01X0378478Y0095793D01*
G01X0376821Y0091189D01*
G01X0374855Y0086707D01*
G01X0372589Y0082370D01*
G01X0370033Y0078197D01*
G01X0367199Y0074208D01*
G01X0364100Y0070420D01*
G01X0360751Y0066853D01*
G01X0357166Y0063521D01*
G01X0353363Y0060441D01*
G01X0349360Y0057626D01*
G01X0345175Y0055091D01*
G01X0340826Y0052846D01*
G01X0336335Y0050902D01*
G01X0331722Y0049268D01*
G01X0327009Y0047952D01*
G01X0322217Y0046960D01*
G01X0317368Y0046296D01*
G01X0312486Y0045962D01*
G01X0307593Y0045962D01*
G01X0302711Y0046296D01*
G01X0297862Y0046960D01*
G01X0293070Y0047952D01*
G01X0288357Y0049268D01*
G01X0283744Y0050902D01*
G01X0279253Y0052846D01*
G01X0274904Y0055091D01*
G01X0270719Y0057626D01*
G01X0266716Y0060441D01*
G01X0262913Y0063521D01*
G01X0259328Y0066853D01*
G01X0255979Y0070420D01*
G01X0252880Y0074208D01*
G01X0250046Y0078197D01*
G01X0247490Y0082370D01*
G01X0245224Y0086707D01*
G01X0243258Y0091189D01*
G01X0241601Y0095793D01*
G01X0240261Y0100500D01*
G01X0239245Y0105287D01*
G01X0238557Y0110132D01*
G01X0238200Y0115013D01*
G01X0238175Y0119906D01*
G01X0238484Y0124790D01*
G01X0239125Y0129642D01*
G01X0240093Y0134438D01*
G01X0241386Y0139158D01*
G01X0242997Y0143779D01*
G01X0244918Y0148280D01*
G01X0247142Y0152639D01*
G01X0249657Y0156837D01*
G01X0252451Y0160854D01*
G01X0255512Y0164672D01*
G01X0258826Y0168273D01*
G01X0262377Y0171640D01*
G01X0266149Y0174758D01*
G01X0270125Y0177612D01*
G01X0274285Y0180188D01*
G01X0278611Y0182476D01*
G01X0283082Y0184465D01*
G01X0287679Y0186144D01*
G01X0292379Y0187507D01*
G01X0297160Y0188547D01*
G01X0302002Y0189259D01*
G01X0306881Y0189641D01*
G01X0309327Y0189706D01*
G01X0309327Y0189706D01*
G01X0309327Y0206693D01*
G01X0308871Y0256368D01*
G01X0307836Y0306043D01*
G01X0306902Y0330881D01*
G01X0305496Y0355719D01*
G01X0303382Y0380556D01*
G01X0300201Y0405394D01*
G01X0295416Y0430231D01*
G01X0288217Y0455069D01*
G01X0283353Y0467488D01*
G01X0273915Y0486116D01*
G01X0261095Y0504744D01*
G01X0250087Y0517163D01*
G01X0236585Y0529582D01*
G01X0220025Y0542001D01*
G01X0199714Y0554419D01*
G01X0174802Y0566838D01*
G01X0144246Y0579257D01*
G01X0126464Y0585466D01*
G01X0106769Y0591676D01*
G01X0084959Y0597885D01*
G01X0060802Y0604095D01*
G01X0013780Y0604095D01*
G01X0013780Y0395335D01*
G37*
G36*
G01X0013780Y0395335D02*
G37*
M02*
